<?xml version="1.0" encoding="UTF-8"?>
<svg width="139px" height="41px" viewBox="0 0 139 41" version="1.1" xmlns="http://www.w3.org/2000/svg" xmlns:xlink="http://www.w3.org/1999/xlink">
    <!-- Generator: sketchtool 51.2 (57519) - http://www.bohemiancoding.com/sketch -->
    <title>1BE10DEA-8D00-4F9E-91E7-773B5AB05A99</title>
    <desc>Created with sketchtool.</desc>
    <defs></defs>
    <g id="logo" stroke="none" stroke-width="1" fill="none" fill-rule="evenodd">
        <g id="sewport-logo-1.1" transform="translate(-976.000000, -212.000000)" fill-rule="nonzero">
            <g id="sewport-logo" transform="translate(974.000000, 210.000000)">
                <path d="M111.45159,31.2131802 C110.082291,31.2131802 108.84825,30.9173484 107.749429,30.3256759 C106.650609,29.7340034 105.792697,28.9099005 105.175667,27.8533425 C104.558637,26.7967845 104.250127,25.6007788 104.250127,24.2652895 C104.250127,22.9298002 104.558637,21.7380207 105.175667,20.6899151 C105.792697,19.6418096 106.650609,18.8219329 107.749429,18.2302604 C108.84825,17.6385879 110.082291,17.3427561 111.45159,17.3427561 C112.837794,17.3427561 114.080288,17.6385879 115.179108,18.2302604 C116.277929,18.8219329 117.135841,19.6418096 117.752871,20.6899151 C118.3699,21.7380207 118.678411,22.9298002 118.678411,24.2652895 C118.678411,25.6007788 118.3699,26.7967845 117.752871,27.8533425 C117.135841,28.9099005 116.277929,29.7340034 115.179108,30.3256759 C114.080288,30.9173484 112.837794,31.2131802 111.45159,31.2131802 Z M111.45159,28.4999528 C112.61803,28.4999528 113.581597,28.1111453 114.342318,27.3335186 C115.10304,26.5558919 115.483395,25.5331591 115.483395,24.2652895 C115.483395,22.9974199 115.10304,21.9746871 114.342318,21.1970604 C113.581597,20.4194337 112.61803,20.0306262 111.45159,20.0306262 C110.28515,20.0306262 109.32581,20.4194337 108.57354,21.1970604 C107.821271,21.9746871 107.445142,22.9974199 107.445142,24.2652895 C107.445142,25.5331591 107.821271,26.5558919 108.57354,27.3335186 C109.32581,28.1111453 110.28515,28.4999528 111.45159,28.4999528 Z" id="sewport" fill="#205BB3"></path>
                <path d="M140.891375,30.3003186 C140.519467,30.6046073 140.067267,30.8328204 139.534761,30.9849648 C139.002256,31.1371091 138.440176,31.2131802 137.848503,31.2131802 C136.360869,31.2131802 135.211352,30.8243727 134.399915,30.046746 C133.588479,29.2691193 133.182766,28.1365061 133.182766,26.6488724 L133.182766,20.1320553 L130.951327,20.1320553 L130.951327,17.5963288 L133.182766,17.5963288 L133.182766,14.5027424 L136.352424,14.5027424 L136.352424,17.5963288 L139.978513,17.5963288 L139.978513,20.1320553 L136.352424,20.1320553 L136.352424,26.5728007 C136.352424,27.2320928 136.513019,27.7350069 136.834213,28.0815579 C137.155406,28.4281089 137.620285,28.6013819 138.228862,28.6013819 C138.938869,28.6013819 139.530533,28.4154304 140.003871,28.043522 L140.891375,30.3003186 Z" id="Path" fill="#205BB3"></path>
                <path d="M124.129351,19.4727664 C125.042217,18.0527524 126.648161,17.3427561 128.947231,17.3427561 L128.947231,20.3602707 C128.676752,20.3095559 128.431635,20.2841989 128.211871,20.2841989 C126.977811,20.2841989 126.014244,20.6434232 125.321142,21.3618826 C124.62804,22.0803421 124.281494,23.1157534 124.281494,24.4681476 L124.281494,31.0356793 L121.111836,31.0356793 L121.111836,17.4948997 L124.129351,17.4948997 L124.129351,19.4727664 Z" id="Path" fill="#205BB3"></path>
                <path d="M40.5784698,31.2131802 C39.4796495,31.2131802 38.4062027,31.0694904 37.3580971,30.7821067 C36.3099916,30.4947229 35.4732102,30.1312724 34.8477279,29.6917443 L36.0648766,27.2828041 C36.673454,27.6885224 37.4045812,28.0139373 38.25828,28.2590588 C39.1119789,28.5041802 39.9529865,28.6267391 40.7813279,28.6267391 C42.6746799,28.6267391 43.6213416,28.1280512 43.6213416,27.1306605 C43.6213416,26.6573225 43.38045,26.3276814 42.8986596,26.1417271 C42.4168691,25.9557729 41.6434803,25.7782739 40.5784698,25.6092246 C39.4627446,25.4401753 38.5541183,25.2457715 37.8525638,25.0260075 C37.1510093,24.8062434 36.542441,24.4216621 36.0268407,23.8722519 C35.5112404,23.3228417 35.2534441,22.5579052 35.2534441,21.5774194 C35.2534441,20.2926449 35.7901675,19.2656859 36.8636305,18.4965117 C37.9370934,17.7273375 39.3866692,17.3427561 41.2124014,17.3427561 C42.1421725,17.3427561 43.0719296,17.4484103 44.0017006,17.6597219 C44.9314717,17.8710335 45.692182,18.1541868 46.2838545,18.5091903 L45.0667057,20.9181305 C43.9171707,20.2419334 42.6239631,19.9038399 41.1870442,19.9038399 C40.2572731,19.9038399 39.551503,20.0433035 39.0697125,20.3222348 C38.5879221,20.6011661 38.3470305,20.9688428 38.3470305,21.4252758 C38.3470305,21.9324237 38.6048268,22.291648 39.1204271,22.5029596 C39.6360274,22.7142712 40.4347732,22.9129011 41.5166886,23.0988553 C42.598604,23.2679046 43.4860994,23.4623084 44.1792015,23.6820724 C44.8723035,23.9018365 45.4681933,24.2737393 45.9668887,24.7977921 C46.465584,25.3218449 46.714928,26.0656505 46.714928,27.0292314 C46.714928,28.297101 46.1655261,29.3113815 45.0667057,30.0721032 C43.9678854,30.832825 42.4718217,31.2131802 40.5784698,31.2131802 Z" id="Path" fill="#205BB3"></path>
                <path d="M62.1828597,24.3413613 C62.1828597,24.5611254 62.1659551,24.8738619 62.1321451,25.2795801 L51.5074511,25.2795801 C51.6934053,26.2769709 52.1794147,27.0672644 52.9654939,27.6504844 C53.751573,28.2337044 54.7278179,28.5253101 55.894258,28.5253101 C57.3818916,28.5253101 58.6074806,28.0350745 59.5710614,27.0545887 L61.2699983,29.0070981 C60.6614207,29.73401 59.8922582,30.2834119 58.962487,30.6553203 C58.032716,31.0272288 56.9846262,31.2131802 55.8181862,31.2131802 C54.3305525,31.2131802 53.0204403,30.9173484 51.8878101,30.3256759 C50.7551799,29.7340034 49.880363,28.9099005 49.2633331,27.8533425 C48.6463033,26.7967845 48.337793,25.6007788 48.337793,24.2652895 C48.337793,22.9467051 48.6378509,21.7591518 49.2379759,20.7025937 C49.8381008,19.6460358 50.670656,18.8219329 51.7356665,18.2302604 C52.800677,17.6385879 54.0009089,17.3427561 55.3363982,17.3427561 C56.6549825,17.3427561 57.8340836,17.6343617 58.8737367,18.2175818 C59.9133896,18.8008018 60.724814,19.6206785 61.308034,20.6772365 C61.8912541,21.7337945 62.1828597,22.9551572 62.1828597,24.3413613 Z M55.3363982,19.8784826 C54.3221025,19.8784826 53.4641902,20.1785406 52.7626357,20.7786655 C52.0610812,21.3787905 51.6342382,22.1775364 51.4820938,23.1749271 L59.1653451,23.1749271 C59.0301058,22.1944413 58.6159413,21.3999216 57.9228392,20.7913442 C57.2297372,20.1827668 56.3675988,19.8784826 55.3363982,19.8784826 Z" id="Combined-Shape" fill="#205BB3"></path>
                <polygon id="Path" fill="#205BB3" points="85.7900376 17.4948997 80.7946565 31.0356793 77.7517846 31.0356793 74.2524821 21.7042057 70.7024648 31.0356793 67.6595931 31.0356793 62.6895692 17.4948997 65.6817264 17.4948997 69.2571008 27.4856622 72.9846188 17.4948997 75.6471316 17.4948997 79.2985779 27.5363767 82.9753812 17.4948997"></polygon>
                <path d="M95.476513,17.3427561 C96.7950974,17.3427561 97.9741984,17.6301356 99.0138515,18.2049031 C100.053505,18.7796707 100.869155,19.5910951 101.460828,20.6392006 C102.0525,21.6873061 102.348332,22.8959903 102.348332,24.2652895 C102.348332,25.6345887 102.0525,26.8474991 101.460828,27.9040571 C100.869155,28.9606151 100.053505,29.7762656 99.0138515,30.3510332 C97.9741984,30.9258007 96.7950974,31.2131802 95.476513,31.2131802 C93.6507809,31.2131802 92.2054311,30.6046119 91.1404206,29.3874571 L91.1404206,35.9549888 L87.9707625,35.9549888 L87.9707625,17.4948997 L90.988277,17.4948997 L90.988277,19.2699083 C91.5123299,18.627521 92.1589336,18.1457378 92.9281079,17.8245442 C93.6972821,17.5033505 94.5467421,17.3427561 95.476513,17.3427561 Z M95.1215113,28.4999528 C96.2879513,28.4999528 97.2472915,28.1111453 97.9995608,27.3335186 C98.7518301,26.5558919 99.1279591,25.5331591 99.1279591,24.2652895 C99.1279591,22.9974199 98.7518301,21.9746871 97.9995608,21.1970604 C97.2472915,20.4194337 96.2879513,20.0306262 95.1215113,20.0306262 C94.3607896,20.0306262 93.6761503,20.2038991 93.0675729,20.5504502 C92.4589955,20.8970012 91.9772122,21.3914629 91.6222088,22.0338502 C91.2672052,22.6762374 91.0897061,23.4200431 91.0897061,24.2652895 C91.0897061,25.1105359 91.2672052,25.8543416 91.6222088,26.4967289 C91.9772122,27.1391161 92.4589955,27.6335778 93.0675729,27.9801289 C93.6761503,28.3266799 94.3607896,28.4999528 95.1215113,28.4999528 Z" id="Combined-Shape" fill="#205BB3"></path>
                <path d="M8.4024172,7.28940729 L20.0771034,7.28940729 C23.6864905,7.28940729 26.6124769,10.2153937 26.6124769,13.8247809 C26.6124769,17.4341679 23.6864905,20.3601543 20.0771034,20.3601543 L0.964743624,20.3601543 L0.964743624,14.7270809 C0.964743624,10.6193672 4.2947035,7.28940729 8.4024172,7.28940729 Z" id="Rectangle-6" fill="#3ADF7E" transform="translate(13.788610, 13.824781) rotate(316.000000) translate(-13.788610, -13.824781) "></path>
                <path d="M7.5517948,25.3140857 L26.6641546,25.3140857 L26.6641546,31.4120136 C26.6641546,35.2629952 23.5423171,38.3848326 19.6913357,38.3848326 L7.5517948,38.3848326 C3.94240773,38.3848326 1.01642137,35.4588463 1.01642137,31.8494592 C1.01642137,28.2400721 3.94240773,25.3140857 7.5517948,25.3140857 Z" id="Rectangle-6" fill="#205BB3" transform="translate(13.840288, 31.849459) rotate(316.000000) translate(-13.840288, -31.849459) "></path>
                <path d="M8.14258147,16.3017383 L20.2571106,16.2419832 C23.8202717,16.2244078 26.7230321,19.098673 26.7406075,22.6618341 C26.7408778,22.716622 26.7404502,22.7714111 26.7393247,22.8261881 C26.6637589,26.5040379 23.6637577,29.447748 19.9851365,29.4536433 L6.89697157,29.4746178 C3.58373924,29.4799274 0.893529436,26.7983262 0.888219813,23.4850939 C0.88791197,23.2929984 0.896830789,23.100999 0.914945441,22.9097594 C1.26849816,19.1772399 4.39340028,16.3202312 8.14258147,16.3017383 Z" id="Rectangle-6" fill-opacity="0.229194973" fill="#000000" transform="translate(13.814449, 22.858264) scale(-1, 1) rotate(134.000000) translate(-13.814449, -22.858264) "></path>
            </g>
        </g>
    </g>
</svg>