<?xml version="1.0" encoding="UTF-8"?>
<svg width="23px" height="41px" viewBox="0 0 23 41" version="1.1" xmlns="http://www.w3.org/2000/svg" xmlns:xlink="http://www.w3.org/1999/xlink">
    <!-- Generator: sketchtool 51.2 (57519) - http://www.bohemiancoding.com/sketch -->
    <title>71805F16-D243-4C1F-86EE-18EFDDC23061</title>
    <desc>Created with sketchtool.</desc>
    <defs></defs>
    <g id="logo" stroke="none" stroke-width="1" fill="none" fill-rule="evenodd">
        <g id="sewport-logo-1.1" transform="translate(-1169.000000, -212.000000)" fill-rule="nonzero">
            <g id="logo-small" transform="translate(1167.000000, 210.000000)">
                <path d="M8.4024172,7.28940729 L20.0771034,7.28940729 C23.6864905,7.28940729 26.6124769,10.2153937 26.6124769,13.8247809 C26.6124769,17.4341679 23.6864905,20.3601543 20.0771034,20.3601543 L0.964743624,20.3601543 L0.964743624,14.7270809 C0.964743624,10.6193672 4.2947035,7.28940729 8.4024172,7.28940729 Z" id="Rectangle-6" fill="#3ADF7E" transform="translate(13.788610, 13.824781) rotate(316.000000) translate(-13.788610, -13.824781) "></path>
                <path d="M7.5517948,25.3140857 L26.6641546,25.3140857 L26.6641546,31.4120136 C26.6641546,35.2629952 23.5423171,38.3848326 19.6913357,38.3848326 L7.5517948,38.3848326 C3.94240773,38.3848326 1.01642137,35.4588463 1.01642137,31.8494592 C1.01642137,28.2400721 3.94240773,25.3140857 7.5517948,25.3140857 Z" id="Rectangle-6" fill="#205BB3" transform="translate(13.840288, 31.849459) rotate(316.000000) translate(-13.840288, -31.849459) "></path>
                <path d="M8.14258147,16.3017383 L20.2571106,16.2419832 C23.8202717,16.2244078 26.7230321,19.098673 26.7406075,22.6618341 C26.7408778,22.716622 26.7404502,22.7714111 26.7393247,22.8261881 C26.6637589,26.5040379 23.6637577,29.447748 19.9851365,29.4536433 L6.89697157,29.4746178 C3.58373924,29.4799274 0.893529436,26.7983262 0.888219813,23.4850939 C0.88791197,23.2929984 0.896830789,23.100999 0.914945441,22.9097594 C1.26849816,19.1772399 4.39340028,16.3202312 8.14258147,16.3017383 Z" id="Rectangle-6" fill-opacity="0.229194973" fill="#000000" transform="translate(13.814449, 22.858264) scale(-1, 1) rotate(134.000000) translate(-13.814449, -22.858264) "></path>
            </g>
        </g>
    </g>
</svg>